<?xml version="1.0" standalone="no"?>
<!DOCTYPE svg PUBLIC "-//W3C//DTD SVG 20010904//EN"
 "http://www.w3.org/TR/2001/REC-SVG-20010904/DTD/svg10.dtd">
<svg version="1.0" xmlns="http://www.w3.org/2000/svg"
 width="398.000000pt" height="398.000000pt" viewBox="0 0 398.000000 398.000000"
 preserveAspectRatio="xMidYMid meet">
<metadata>
Created by potrace 1.11, written by Peter Selinger 2001-2013
</metadata>
<g transform="translate(0.000000,398.000000) scale(0.100000,-0.100000)"
fill="#000000" stroke="none">
<path d="M0 1990 l0 -1990 1990 0 1990 0 0 1990 0 1990 -1990 0 -1990 0 0
-1990z m1532 473 c438 -882 482 -966 492 -943 6 14 219 448 473 965 l462 940
175 3 176 2 0 -1435 0 -1435 -170 0 -170 0 -2 1100 -3 1100 -379 -775 -379
-775 -191 0 -191 0 -397 793 -397 792 0 -1117 -1 -1118 -160 0 -160 0 0 1435
0 1435 171 0 171 0 480 -967z"/>
</g>
</svg>
